<svg id="Layer_1" data-name="Layer 1" xmlns="http://www.w3.org/2000/svg" viewBox="0 0 100 100"><defs><style>.cls-1{fill:#8f2a42;}.cls-2{fill:#7e1835;}.cls-3{fill:#4314ef;}.cls-4{fill:#edff00;}.cls-5{fill:#ccc;}.cls-6{fill:#894e65;}.cls-6,.cls-7{stroke:#000;stroke-miterlimit:10;stroke-width:2px;}.cls-7{fill:#54102c;}.cls-8{fill:#fff;}.cls-9{fill:#fffdfe;}</style></defs><title>webapplogo</title><rect class="cls-1" x="-1" y="-2" width="102" height="102"/><rect class="cls-2" width="100" height="100" rx="15.78"/><path d="M5.19,11.14V9.35h4.1V13a8.66,8.66,0,0,1-2.08,1.1,7.22,7.22,0,0,1-2.15.29,5.17,5.17,0,0,1-2.49-.53,3.52,3.52,0,0,1-1.5-1.55A5.17,5.17,0,0,1,.54,10a5,5,0,0,1,.58-2.44,3.78,3.78,0,0,1,1.7-1.58,5.49,5.49,0,0,1,2.35-.42,6.64,6.64,0,0,1,2.13.26,2.76,2.76,0,0,1,1.17.8,3.48,3.48,0,0,1,.7,1.37L6.61,8.4a1.36,1.36,0,0,0-.53-.74,1.73,1.73,0,0,0-1-.26A1.73,1.73,0,0,0,3.72,8,2.93,2.93,0,0,0,3.2,9.92a3,3,0,0,0,.53,2,1.82,1.82,0,0,0,1.46.59A3,3,0,0,0,6,12.39,5,5,0,0,0,7,12v-.81Z"/><path d="M12.88,10,10.6,9.8A2.67,2.67,0,0,1,11,8.86a2.06,2.06,0,0,1,.7-.59A2.8,2.8,0,0,1,12.58,8a6.85,6.85,0,0,1,1.24-.1A9.86,9.86,0,0,1,15.54,8a2.16,2.16,0,0,1,1.09.5,1.76,1.76,0,0,1,.48.74,2.91,2.91,0,0,1,.17.93v2.74a3,3,0,0,0,.06.69,3.55,3.55,0,0,0,.24.64H15.34a1.57,1.57,0,0,1-.17-.37,2.3,2.3,0,0,1-.09-.39,3,3,0,0,1-.93.64,3.9,3.9,0,0,1-1.47.26A2.44,2.44,0,0,1,11,13.87a1.76,1.76,0,0,1-.16-2.43,2.8,2.8,0,0,1,1.54-.68c.89-.18,1.47-.31,1.74-.38a7.69,7.69,0,0,0,.84-.29.84.84,0,0,0-.18-.61.91.91,0,0,0-.64-.18,1.72,1.72,0,0,0-.88.19A1.08,1.08,0,0,0,12.88,10ZM15,11.3c-.33.11-.67.22-1,.31A2.35,2.35,0,0,0,13,12a.59.59,0,0,0-.19.44.6.6,0,0,0,.19.46.84.84,0,0,0,.58.18,1.49,1.49,0,0,0,.74-.2,1.17,1.17,0,0,0,.49-.47,1.68,1.68,0,0,0,.14-.72Z"/><path d="M18.79,5.66h2.39v8.59H18.79Z"/><path d="M22,8h2.31l1,3.91L26.58,8h2.15L30.05,12l1-3.92h2.29l-2.29,6.22H28.93L27.67,10.5l-1.22,3.75H24.32Z"/><path d="M36.07,10,33.79,9.8a2.49,2.49,0,0,1,.38-.94,1.88,1.88,0,0,1,.7-.59,2.73,2.73,0,0,1,.9-.28A6.92,6.92,0,0,1,37,7.89,9.78,9.78,0,0,1,38.73,8a2.16,2.16,0,0,1,1.09.5,1.76,1.76,0,0,1,.48.74,2.66,2.66,0,0,1,.17.93v2.74a3,3,0,0,0,.06.69,3.55,3.55,0,0,0,.24.64H38.53a2.13,2.13,0,0,1-.17-.37,1.72,1.72,0,0,1-.08-.39,3.21,3.21,0,0,1-.94.64,3.9,3.9,0,0,1-1.47.26,2.44,2.44,0,0,1-1.69-.52,1.63,1.63,0,0,1-.57-1.27A1.68,1.68,0,0,1,34,11.44a2.8,2.8,0,0,1,1.54-.68c.89-.18,1.47-.31,1.74-.38a7.69,7.69,0,0,0,.84-.29A.84.84,0,0,0,38,9.48a.89.89,0,0,0-.64-.18,1.72,1.72,0,0,0-.88.19A1.08,1.08,0,0,0,36.07,10Zm2.07,1.26c-.33.11-.67.22-1,.31a2.28,2.28,0,0,0-.92.38.57.57,0,0,0-.2.44.6.6,0,0,0,.19.46.84.84,0,0,0,.58.18,1.47,1.47,0,0,0,.74-.2A1.17,1.17,0,0,0,38,12.4a1.68,1.68,0,0,0,.14-.72Z"/><path d="M41.22,8h2.51L45,12.17,46.21,8h2.35l-2.47,6.65a4,4,0,0,1-.86,1.53,2.7,2.7,0,0,1-1.89.56,12.12,12.12,0,0,1-1.59-.14L41.56,15a3.72,3.72,0,0,0,1.15.16,1.12,1.12,0,0,0,.68-.19,1.5,1.5,0,0,0,.44-.69Z"/><path d="M51.41,5.66h2.65v3H57v-3h2.67v8.59H57V10.77h-2.9v3.48H51.41Z"/><path d="M60.94,11.16a3.11,3.11,0,0,1,1-2.35A4.18,4.18,0,0,1,67.32,9a3.15,3.15,0,0,1,.77,2.15,3.1,3.1,0,0,1-1,2.35,4.23,4.23,0,0,1-5,.16A3.06,3.06,0,0,1,60.94,11.16Zm2.39,0a1.86,1.86,0,0,0,.34,1.23,1,1,0,0,0,.84.4,1.06,1.06,0,0,0,.85-.39,2,2,0,0,0,.33-1.26,1.88,1.88,0,0,0-.33-1.21,1.1,1.1,0,0,0-1.69,0A1.83,1.83,0,0,0,63.33,11.15Z"/><path d="M75.79,14.25H73.57v-1a3.36,3.36,0,0,1-1,.89,2.74,2.74,0,0,1-1.24.26,2,2,0,0,1-1.55-.59A2.56,2.56,0,0,1,69.21,12V8h2.4v3.42a1.21,1.21,0,0,0,.22.83.76.76,0,0,0,.6.25.86.86,0,0,0,.7-.33A1.84,1.84,0,0,0,73.41,11V8h2.38Z"/><path d="M76.82,12.52l2.36-.22a1.21,1.21,0,0,0,.41.6,1.24,1.24,0,0,0,.71.18,1.21,1.21,0,0,0,.74-.2.46.46,0,0,0,.21-.38.44.44,0,0,0-.27-.4,4.73,4.73,0,0,0-1-.25,9.41,9.41,0,0,1-1.72-.4,1.78,1.78,0,0,1-.82-.62,1.71,1.71,0,0,1,0-2.06,2,2,0,0,1,1-.66,5.14,5.14,0,0,1,1.68-.22,5.62,5.62,0,0,1,1.65.17,2,2,0,0,1,.88.52,2.62,2.62,0,0,1,.59,1L81,9.77a.83.83,0,0,0-.29-.44A1.25,1.25,0,0,0,80,9.15a.93.93,0,0,0-.59.14.43.43,0,0,0-.19.35.37.37,0,0,0,.24.34,3.51,3.51,0,0,0,1,.21,7,7,0,0,1,1.77.38,2,2,0,0,1,.88.68,1.65,1.65,0,0,1,.31,1,2,2,0,0,1-.32,1,2.2,2.2,0,0,1-1,.81,4.92,4.92,0,0,1-1.91.3,4.45,4.45,0,0,1-2.42-.49A2.11,2.11,0,0,1,76.82,12.52Z"/><path d="M91.48,11.73H86.7a1.45,1.45,0,0,0,.31.85,1.13,1.13,0,0,0,.9.41,1.35,1.35,0,0,0,.67-.18,1.45,1.45,0,0,0,.41-.39l2.35.22A3.36,3.36,0,0,1,90,14a4.72,4.72,0,0,1-2.18.41,4.5,4.5,0,0,1-2-.35,2.82,2.82,0,0,1-1.17-1.11,3.33,3.33,0,0,1-.47-1.78,3.11,3.11,0,0,1,.94-2.36,3.55,3.55,0,0,1,2.58-.9,4.61,4.61,0,0,1,2.11.4,2.75,2.75,0,0,1,1.17,1.17,4.28,4.28,0,0,1,.41,2Zm-2.43-1.14a1.62,1.62,0,0,0-.37-1,1.16,1.16,0,0,0-1.7.15,1.63,1.63,0,0,0-.28.84Z"/><path d="M92.15,12.52l2.37-.22a1.15,1.15,0,0,0,.41.6,1.21,1.21,0,0,0,.7.18,1.26,1.26,0,0,0,.75-.2.47.47,0,0,0,.2-.38.44.44,0,0,0-.27-.4,4.75,4.75,0,0,0-1-.25,9.57,9.57,0,0,1-1.73-.4,1.81,1.81,0,0,1-.81-.62,1.73,1.73,0,0,1,0-2.06,2.07,2.07,0,0,1,1-.66,5.1,5.1,0,0,1,1.68-.22,5.54,5.54,0,0,1,1.64.17,2.08,2.08,0,0,1,.89.52,2.91,2.91,0,0,1,.59,1l-2.27.22A.73.73,0,0,0,96,9.33a1.23,1.23,0,0,0-.68-.18,1,1,0,0,0-.59.14.42.42,0,0,0-.18.35.37.37,0,0,0,.23.34,3.69,3.69,0,0,0,1,.21,7,7,0,0,1,1.77.38,2,2,0,0,1,.89.68,1.73,1.73,0,0,1,.31,1,1.91,1.91,0,0,1-.33,1,2.23,2.23,0,0,1-1,.81,5,5,0,0,1-1.91.3,4.46,4.46,0,0,1-2.43-.49A2.19,2.19,0,0,1,92.15,12.52Z"/><rect x="19.67" y="58.21" width="61.33" height="41.02"/><rect class="cls-3" x="22.22" y="60.92" width="56.31" height="36.95"/><rect x="26.31" y="68.43" width="17.77" height="18.38"/><rect class="cls-4" x="28.71" y="71.08" width="5.41" height="5.11"/><rect class="cls-4" x="28.71" y="78.87" width="5.41" height="5.11"/><rect class="cls-4" x="36.27" y="78.87" width="5.41" height="5.11"/><rect class="cls-4" x="36.29" y="71.08" width="5.41" height="5.11"/><rect x="49.95" y="64.88" width="21.32" height="32.9"/><rect class="cls-5" x="52.13" y="67.28" width="16.91" height="30.27"/><rect class="cls-6" x="25.49" y="26.08" width="10.14" height="22.89"/><polyline class="cls-7" points="15.82 58.98 50.33 23.45 84.83 58.98"/><rect x="14.99" y="57.36" width="70.65" height="2.53"/><rect class="cls-8" x="2" y="18" width="96" height="2"/><path class="cls-9" d="M29.15,34.74V22.51h6.3a9.18,9.18,0,0,1,2.68.3,2.87,2.87,0,0,1,1.5,1.11,3.8,3.8,0,0,1,.13,3.74,3.5,3.5,0,0,1-1.19,1.2,4.93,4.93,0,0,1-1.33.48,3.64,3.64,0,0,1,1,.45,4,4,0,0,1,.61.65,5.21,5.21,0,0,1,.53.75l1.83,3.55H36.92l-2-3.74a2.75,2.75,0,0,0-.68-.94,1.58,1.58,0,0,0-.93-.29H33v5ZM33,27.46h1.59a5.61,5.61,0,0,0,1-.16,1,1,0,0,0,.61-.39,1.11,1.11,0,0,0,.24-.71,1.15,1.15,0,0,0-.38-.91A2.29,2.29,0,0,0,34.61,25H33Z"/><path class="cls-9" d="M51.58,31.15H44.77a2.22,2.22,0,0,0,.45,1.22A1.6,1.6,0,0,0,46.5,33a1.89,1.89,0,0,0,1-.26,2.25,2.25,0,0,0,.6-.55l3.34.3a4.83,4.83,0,0,1-1.85,1.92,6.67,6.67,0,0,1-3.11.58,6.35,6.35,0,0,1-2.77-.5A4.07,4.07,0,0,1,42,32.87a4.78,4.78,0,0,1-.66-2.54A4.47,4.47,0,0,1,42.65,27a5.1,5.1,0,0,1,3.68-1.28,6.59,6.59,0,0,1,3,.57A4,4,0,0,1,51,27.92a6.17,6.17,0,0,1,.57,2.85Zm-3.45-1.63a2.3,2.3,0,0,0-.53-1.41,1.68,1.68,0,0,0-2.43.22,2.49,2.49,0,0,0-.39,1.19Z"/><path class="cls-9" d="M53.14,25.88h3.17v1.44a4.64,4.64,0,0,1,1.43-1.26,3.68,3.68,0,0,1,1.77-.38,2.9,2.9,0,0,1,2.21.84,3.65,3.65,0,0,1,.79,2.59v5.63H59.1V29.87a1.74,1.74,0,0,0-.31-1.18,1.06,1.06,0,0,0-.87-.35,1.25,1.25,0,0,0-1,.47,2.75,2.75,0,0,0-.38,1.67v4.26h-3.4Z"/><path class="cls-9" d="M68.64,22.51v3.37h1.87v2.48H68.64V31.5a1.57,1.57,0,0,0,.11.75.61.61,0,0,0,.58.29,3.92,3.92,0,0,0,1-.22l.25,2.34a10.64,10.64,0,0,1-2.35.28,4,4,0,0,1-1.87-.33,1.94,1.94,0,0,1-.89-1,5.85,5.85,0,0,1-.29-2.15V28.36H64V25.88h1.25V24.25Z"/><path class="cls-9" d="M53,43.64l2.72.61a10.45,10.45,0,0,1-.41,1.21c-.13.3-.32.65-.55,1.06l1.3.9.62.37-1.87,2.15c-.34-.18-.7-.39-1.07-.63s-.69-.45-1-.62a7,7,0,0,1-1.81.87,10,10,0,0,1-2.86.38,5.66,5.66,0,0,1-3.72-1,3.23,3.23,0,0,1-1.22-2.53,3.29,3.29,0,0,1,.72-2,5.31,5.31,0,0,1,2.34-1.61,6.1,6.1,0,0,1-.93-1.44A3,3,0,0,1,45,40.06a2.76,2.76,0,0,1,1-2.2A4.68,4.68,0,0,1,49.1,37a4.79,4.79,0,0,1,3.1.82,2.48,2.48,0,0,1,1,2,2.66,2.66,0,0,1-.3,1.23,3,3,0,0,1-.73,1,16.65,16.65,0,0,1-1.53,1.09,21.6,21.6,0,0,0,1.9,1.7A6.55,6.55,0,0,0,53,43.64Zm-5.23.85a3.62,3.62,0,0,0-1,.86,1.36,1.36,0,0,0-.24.76,1.45,1.45,0,0,0,.54,1.11,2,2,0,0,0,1.4.49A4,4,0,0,0,50.59,47C49.85,46.41,48.91,45.58,47.75,44.49Zm1.24-3a3.74,3.74,0,0,0,1-.8,1.33,1.33,0,0,0,.37-.81.89.89,0,0,0-.31-.68,1.21,1.21,0,0,0-.85-.28,1.2,1.2,0,0,0-.86.31.94.94,0,0,0-.33.72A2.79,2.79,0,0,0,49,41.45Z"/><path class="cls-8" d="M30.18,59.88l3.44-.22a2.57,2.57,0,0,0,.45,1.28,1.91,1.91,0,0,0,1.6.71,1.78,1.78,0,0,0,1.19-.36,1.11,1.11,0,0,0,.42-.84,1.1,1.1,0,0,0-.4-.82A4.8,4.8,0,0,0,35,59a7.74,7.74,0,0,1-3.39-1.41,2.87,2.87,0,0,1-1-2.26,3,3,0,0,1,.52-1.7,3.39,3.39,0,0,1,1.57-1.26,7.28,7.28,0,0,1,2.88-.46,5.9,5.9,0,0,1,3.41.83,3.59,3.59,0,0,1,1.4,2.65l-3.4.2a1.85,1.85,0,0,0-.57-1.15,1.83,1.83,0,0,0-1.2-.35,1.44,1.44,0,0,0-.95.26A.84.84,0,0,0,34,55a.64.64,0,0,0,.26.5,3,3,0,0,0,1.21.44,15.27,15.27,0,0,1,3.4,1,3.62,3.62,0,0,1,1.49,1.29,3.32,3.32,0,0,1,.46,1.73A3.7,3.7,0,0,1,40.16,62a3.8,3.8,0,0,1-1.74,1.43,6.93,6.93,0,0,1-2.81.5c-2,0-3.36-.39-4.13-1.15A4.52,4.52,0,0,1,30.18,59.88Z"/><path class="cls-8" d="M45.34,58l-3.1-.33a3.5,3.5,0,0,1,.51-1.27,2.64,2.64,0,0,1,1-.81,3.87,3.87,0,0,1,1.23-.39,9.91,9.91,0,0,1,1.69-.13,13.35,13.35,0,0,1,2.34.16,3.07,3.07,0,0,1,1.48.68,2.37,2.37,0,0,1,.65,1,3.69,3.69,0,0,1,.24,1.26v3.73a4.48,4.48,0,0,0,.08.94,4.09,4.09,0,0,0,.33.87H48.69a4,4,0,0,1-.24-.5c0-.12-.07-.3-.11-.54a4.23,4.23,0,0,1-1.27.88,5.33,5.33,0,0,1-2,.35,3.4,3.4,0,0,1-2.3-.7A2.25,2.25,0,0,1,42,61.51a2.29,2.29,0,0,1,.56-1.59A3.88,3.88,0,0,1,44.64,59q1.83-.36,2.37-.51a12,12,0,0,0,1.15-.39,1.1,1.1,0,0,0-.25-.83A1.22,1.22,0,0,0,47,57a2.22,2.22,0,0,0-1.19.25A1.42,1.42,0,0,0,45.34,58Zm2.82,1.71a14.3,14.3,0,0,1-1.4.42,3.31,3.31,0,0,0-1.25.52.82.82,0,0,0,0,1.22,1.14,1.14,0,0,0,.78.25,2,2,0,0,0,1-.27,1.57,1.57,0,0,0,.66-.64,2.13,2.13,0,0,0,.2-1Z"/><path class="cls-8" d="M53.39,52.06h3.25V63.75H53.39Z"/><path class="cls-8" d="M68.11,60.32h-6.5A2.11,2.11,0,0,0,62,61.48a1.52,1.52,0,0,0,1.23.55,1.85,1.85,0,0,0,.91-.24,2.23,2.23,0,0,0,.56-.53l3.2.29a4.6,4.6,0,0,1-1.77,1.83,6.4,6.4,0,0,1-3,.56,6,6,0,0,1-2.65-.48,3.89,3.89,0,0,1-1.6-1.5,4.58,4.58,0,0,1-.63-2.43,4.24,4.24,0,0,1,1.27-3.21,4.84,4.84,0,0,1,3.51-1.23,6.21,6.21,0,0,1,2.87.55,3.67,3.67,0,0,1,1.6,1.59A5.79,5.79,0,0,1,68.11,60Zm-3.3-1.56a2.16,2.16,0,0,0-.5-1.34,1.59,1.59,0,0,0-2.32.2,2.22,2.22,0,0,0-.37,1.14Z"/><ellipse class="cls-8" cx="54" cy="81.5" rx="1" ry="0.5"/></svg>